<mxfile host="app.diagrams.net" agent="Mozilla/5.0 (Windows NT 10.0; Win64; x64) AppleWebKit/537.36 (KHTML, like Gecko) Chrome/131.0.0.0 Safari/537.36" version="25.0.1">
  <diagram name="Page-1" id="RGT0UWQ2K8Zj7YAUgwGY">
    <mxGraphModel dx="696" dy="423" grid="1" gridSize="10" guides="1" tooltips="1" connect="1" arrows="1" fold="1" page="1" pageScale="1" pageWidth="1700" pageHeight="1100" math="0" shadow="0">
      <root>
        <mxCell id="0" />
        <mxCell id="1" parent="0" />
        <mxCell id="I8GjuqWo_tKD1h4LxUAl-1" value="City Relation" style="shape=table;startSize=20;container=1;collapsible=0;childLayout=tableLayout;align=left;strokeWidth=1;perimeterSpacing=0;arcSize=15;swimlaneHead=0;" vertex="1" parent="1">
          <mxGeometry x="40" y="40" width="180" height="50" as="geometry" />
        </mxCell>
        <mxCell id="I8GjuqWo_tKD1h4LxUAl-2" value="" style="shape=tableRow;horizontal=0;startSize=0;swimlaneHead=0;swimlaneBody=0;strokeColor=inherit;top=0;left=0;bottom=0;right=0;collapsible=0;dropTarget=0;fillColor=none;points=[[0,0.5],[1,0.5]];portConstraint=eastwest;" vertex="1" parent="I8GjuqWo_tKD1h4LxUAl-1">
          <mxGeometry y="20" width="180" height="30" as="geometry" />
        </mxCell>
        <mxCell id="I8GjuqWo_tKD1h4LxUAl-3" value="&lt;u&gt;Cname&lt;/u&gt;" style="shape=partialRectangle;html=1;whiteSpace=wrap;connectable=0;strokeColor=inherit;overflow=hidden;fillColor=none;top=0;left=0;bottom=0;right=0;pointerEvents=1;" vertex="1" parent="I8GjuqWo_tKD1h4LxUAl-2">
          <mxGeometry width="60" height="30" as="geometry">
            <mxRectangle width="60" height="30" as="alternateBounds" />
          </mxGeometry>
        </mxCell>
        <mxCell id="I8GjuqWo_tKD1h4LxUAl-4" value="State" style="shape=partialRectangle;html=1;whiteSpace=wrap;connectable=0;strokeColor=inherit;overflow=hidden;fillColor=none;top=0;left=0;bottom=0;right=0;pointerEvents=1;" vertex="1" parent="I8GjuqWo_tKD1h4LxUAl-2">
          <mxGeometry x="60" width="60" height="30" as="geometry">
            <mxRectangle width="60" height="30" as="alternateBounds" />
          </mxGeometry>
        </mxCell>
        <mxCell id="I8GjuqWo_tKD1h4LxUAl-5" value="Country" style="shape=partialRectangle;html=1;whiteSpace=wrap;connectable=0;strokeColor=inherit;overflow=hidden;fillColor=none;top=0;left=0;bottom=0;right=0;pointerEvents=1;" vertex="1" parent="I8GjuqWo_tKD1h4LxUAl-2">
          <mxGeometry x="120" width="60" height="30" as="geometry">
            <mxRectangle width="60" height="30" as="alternateBounds" />
          </mxGeometry>
        </mxCell>
        <mxCell id="I8GjuqWo_tKD1h4LxUAl-168" value="" style="edgeStyle=orthogonalEdgeStyle;rounded=0;orthogonalLoop=1;jettySize=auto;html=1;entryX=0;entryY=0.5;entryDx=0;entryDy=0;exitX=1;exitY=0.5;exitDx=0;exitDy=0;" edge="1" parent="1" source="I8GjuqWo_tKD1h4LxUAl-7" target="I8GjuqWo_tKD1h4LxUAl-2">
          <mxGeometry relative="1" as="geometry">
            <mxPoint x="360" y="145" as="targetPoint" />
          </mxGeometry>
        </mxCell>
        <mxCell id="I8GjuqWo_tKD1h4LxUAl-6" value="Airport Relation" style="shape=table;startSize=20;container=1;collapsible=0;childLayout=tableLayout;align=left;strokeWidth=1;perimeterSpacing=0;arcSize=15;swimlaneHead=0;" vertex="1" parent="1">
          <mxGeometry x="40" y="120" width="240" height="50" as="geometry" />
        </mxCell>
        <mxCell id="I8GjuqWo_tKD1h4LxUAl-7" value="" style="shape=tableRow;horizontal=0;startSize=0;swimlaneHead=0;swimlaneBody=0;strokeColor=inherit;top=0;left=0;bottom=0;right=0;collapsible=0;dropTarget=0;fillColor=none;points=[[0,0.5],[1,0.5]];portConstraint=eastwest;" vertex="1" parent="I8GjuqWo_tKD1h4LxUAl-6">
          <mxGeometry y="20" width="240" height="30" as="geometry" />
        </mxCell>
        <mxCell id="I8GjuqWo_tKD1h4LxUAl-8" value="&lt;u&gt;APname&lt;/u&gt;" style="shape=partialRectangle;html=1;whiteSpace=wrap;connectable=0;strokeColor=inherit;overflow=hidden;fillColor=none;top=0;left=0;bottom=0;right=0;pointerEvents=1;" vertex="1" parent="I8GjuqWo_tKD1h4LxUAl-7">
          <mxGeometry width="60" height="30" as="geometry">
            <mxRectangle width="60" height="30" as="alternateBounds" />
          </mxGeometry>
        </mxCell>
        <mxCell id="I8GjuqWo_tKD1h4LxUAl-9" value="State" style="shape=partialRectangle;html=1;whiteSpace=wrap;connectable=0;strokeColor=inherit;overflow=hidden;fillColor=none;top=0;left=0;bottom=0;right=0;pointerEvents=1;" vertex="1" parent="I8GjuqWo_tKD1h4LxUAl-7">
          <mxGeometry x="60" width="60" height="30" as="geometry">
            <mxRectangle width="60" height="30" as="alternateBounds" />
          </mxGeometry>
        </mxCell>
        <mxCell id="I8GjuqWo_tKD1h4LxUAl-10" value="Country" style="shape=partialRectangle;html=1;whiteSpace=wrap;connectable=0;strokeColor=inherit;overflow=hidden;fillColor=none;top=0;left=0;bottom=0;right=0;pointerEvents=1;" vertex="1" parent="I8GjuqWo_tKD1h4LxUAl-7">
          <mxGeometry x="120" width="60" height="30" as="geometry">
            <mxRectangle width="60" height="30" as="alternateBounds" />
          </mxGeometry>
        </mxCell>
        <mxCell id="I8GjuqWo_tKD1h4LxUAl-11" value="" style="shape=partialRectangle;html=1;whiteSpace=wrap;connectable=0;strokeColor=inherit;overflow=hidden;fillColor=none;top=0;left=0;bottom=0;right=0;pointerEvents=1;" vertex="1" parent="I8GjuqWo_tKD1h4LxUAl-7">
          <mxGeometry x="180" width="60" height="30" as="geometry">
            <mxRectangle width="60" height="30" as="alternateBounds" />
          </mxGeometry>
        </mxCell>
        <mxCell id="I8GjuqWo_tKD1h4LxUAl-21" value="Airline Relation" style="shape=table;startSize=20;container=1;collapsible=0;childLayout=tableLayout;align=left;strokeWidth=1;perimeterSpacing=0;arcSize=15;swimlaneHead=0;" vertex="1" parent="1">
          <mxGeometry x="40" y="190" width="180" height="50" as="geometry" />
        </mxCell>
        <mxCell id="I8GjuqWo_tKD1h4LxUAl-22" value="" style="shape=tableRow;horizontal=0;startSize=0;swimlaneHead=0;swimlaneBody=0;strokeColor=inherit;top=0;left=0;bottom=0;right=0;collapsible=0;dropTarget=0;fillColor=none;points=[[0,0.5],[1,0.5]];portConstraint=eastwest;" vertex="1" parent="I8GjuqWo_tKD1h4LxUAl-21">
          <mxGeometry y="20" width="180" height="30" as="geometry" />
        </mxCell>
        <mxCell id="I8GjuqWo_tKD1h4LxUAl-23" value="&lt;u&gt;Airline ID&lt;/u&gt;" style="shape=partialRectangle;html=1;whiteSpace=wrap;connectable=0;strokeColor=inherit;overflow=hidden;fillColor=none;top=0;left=0;bottom=0;right=0;pointerEvents=1;" vertex="1" parent="I8GjuqWo_tKD1h4LxUAl-22">
          <mxGeometry width="60" height="30" as="geometry">
            <mxRectangle width="60" height="30" as="alternateBounds" />
          </mxGeometry>
        </mxCell>
        <mxCell id="I8GjuqWo_tKD1h4LxUAl-24" value="ALname" style="shape=partialRectangle;html=1;whiteSpace=wrap;connectable=0;strokeColor=inherit;overflow=hidden;fillColor=none;top=0;left=0;bottom=0;right=0;pointerEvents=1;" vertex="1" parent="I8GjuqWo_tKD1h4LxUAl-22">
          <mxGeometry x="60" width="60" height="30" as="geometry">
            <mxRectangle width="60" height="30" as="alternateBounds" />
          </mxGeometry>
        </mxCell>
        <mxCell id="I8GjuqWo_tKD1h4LxUAl-25" value="Code" style="shape=partialRectangle;html=1;whiteSpace=wrap;connectable=0;strokeColor=inherit;overflow=hidden;fillColor=none;top=0;left=0;bottom=0;right=0;pointerEvents=1;" vertex="1" parent="I8GjuqWo_tKD1h4LxUAl-22">
          <mxGeometry x="120" width="60" height="30" as="geometry">
            <mxRectangle width="60" height="30" as="alternateBounds" />
          </mxGeometry>
        </mxCell>
        <mxCell id="I8GjuqWo_tKD1h4LxUAl-198" value="" style="edgeStyle=orthogonalEdgeStyle;rounded=0;orthogonalLoop=1;jettySize=auto;html=1;exitX=1;exitY=0.5;exitDx=0;exitDy=0;entryX=0.08;entryY=1.047;entryDx=0;entryDy=0;entryPerimeter=0;" edge="1" parent="1" source="I8GjuqWo_tKD1h4LxUAl-27" target="I8GjuqWo_tKD1h4LxUAl-7">
          <mxGeometry relative="1" as="geometry">
            <mxPoint x="60" y="180" as="targetPoint" />
            <Array as="points">
              <mxPoint x="880" y="355" />
              <mxPoint x="940" y="355" />
              <mxPoint x="940" y="180" />
              <mxPoint x="59" y="180" />
            </Array>
          </mxGeometry>
        </mxCell>
        <mxCell id="I8GjuqWo_tKD1h4LxUAl-26" value="Employee Relation" style="shape=table;startSize=20;container=1;collapsible=0;childLayout=tableLayout;align=left;strokeWidth=1;perimeterSpacing=0;arcSize=15;swimlaneHead=0;" vertex="1" parent="1">
          <mxGeometry x="40" y="330" width="840" height="50" as="geometry" />
        </mxCell>
        <mxCell id="I8GjuqWo_tKD1h4LxUAl-27" value="" style="shape=tableRow;horizontal=0;startSize=0;swimlaneHead=0;swimlaneBody=0;strokeColor=inherit;top=0;left=0;bottom=0;right=0;collapsible=0;dropTarget=0;fillColor=none;points=[[0,0.5],[1,0.5]];portConstraint=eastwest;" vertex="1" parent="I8GjuqWo_tKD1h4LxUAl-26">
          <mxGeometry y="20" width="840" height="30" as="geometry" />
        </mxCell>
        <mxCell id="I8GjuqWo_tKD1h4LxUAl-28" value="&lt;u&gt;Eid&lt;/u&gt;" style="shape=partialRectangle;html=1;whiteSpace=wrap;connectable=0;strokeColor=inherit;overflow=hidden;fillColor=none;top=0;left=0;bottom=0;right=0;pointerEvents=1;" vertex="1" parent="I8GjuqWo_tKD1h4LxUAl-27">
          <mxGeometry width="60" height="30" as="geometry">
            <mxRectangle width="60" height="30" as="alternateBounds" />
          </mxGeometry>
        </mxCell>
        <mxCell id="I8GjuqWo_tKD1h4LxUAl-29" value="Sex" style="shape=partialRectangle;html=1;whiteSpace=wrap;connectable=0;strokeColor=inherit;overflow=hidden;fillColor=none;top=0;left=0;bottom=0;right=0;pointerEvents=1;" vertex="1" parent="I8GjuqWo_tKD1h4LxUAl-27">
          <mxGeometry x="60" width="60" height="30" as="geometry">
            <mxRectangle width="60" height="30" as="alternateBounds" />
          </mxGeometry>
        </mxCell>
        <mxCell id="I8GjuqWo_tKD1h4LxUAl-30" value="Age" style="shape=partialRectangle;html=1;whiteSpace=wrap;connectable=0;strokeColor=inherit;overflow=hidden;fillColor=none;top=0;left=0;bottom=0;right=0;pointerEvents=1;" vertex="1" parent="I8GjuqWo_tKD1h4LxUAl-27">
          <mxGeometry x="120" width="60" height="30" as="geometry">
            <mxRectangle width="60" height="30" as="alternateBounds" />
          </mxGeometry>
        </mxCell>
        <mxCell id="I8GjuqWo_tKD1h4LxUAl-31" value="Salary" style="shape=partialRectangle;html=1;whiteSpace=wrap;connectable=0;strokeColor=inherit;overflow=hidden;fillColor=none;top=0;left=0;bottom=0;right=0;pointerEvents=1;" vertex="1" parent="I8GjuqWo_tKD1h4LxUAl-27">
          <mxGeometry x="180" width="60" height="30" as="geometry">
            <mxRectangle width="60" height="30" as="alternateBounds" />
          </mxGeometry>
        </mxCell>
        <mxCell id="I8GjuqWo_tKD1h4LxUAl-32" value="Jobtype" style="shape=partialRectangle;html=1;whiteSpace=wrap;connectable=0;strokeColor=inherit;overflow=hidden;fillColor=none;top=0;left=0;bottom=0;right=0;pointerEvents=1;" vertex="1" parent="I8GjuqWo_tKD1h4LxUAl-27">
          <mxGeometry x="240" width="60" height="30" as="geometry">
            <mxRectangle width="60" height="30" as="alternateBounds" />
          </mxGeometry>
        </mxCell>
        <mxCell id="I8GjuqWo_tKD1h4LxUAl-33" value="Address" style="shape=partialRectangle;html=1;whiteSpace=wrap;connectable=0;strokeColor=inherit;overflow=hidden;fillColor=none;top=0;left=0;bottom=0;right=0;pointerEvents=1;" vertex="1" parent="I8GjuqWo_tKD1h4LxUAl-27">
          <mxGeometry x="300" width="60" height="30" as="geometry">
            <mxRectangle width="60" height="30" as="alternateBounds" />
          </mxGeometry>
        </mxCell>
        <mxCell id="I8GjuqWo_tKD1h4LxUAl-34" value="Fname" style="shape=partialRectangle;html=1;whiteSpace=wrap;connectable=0;strokeColor=inherit;overflow=hidden;fillColor=none;top=0;left=0;bottom=0;right=0;pointerEvents=1;" vertex="1" parent="I8GjuqWo_tKD1h4LxUAl-27">
          <mxGeometry x="360" width="60" height="30" as="geometry">
            <mxRectangle width="60" height="30" as="alternateBounds" />
          </mxGeometry>
        </mxCell>
        <mxCell id="I8GjuqWo_tKD1h4LxUAl-35" value="Lname" style="shape=partialRectangle;html=1;whiteSpace=wrap;connectable=0;strokeColor=inherit;overflow=hidden;fillColor=none;top=0;left=0;bottom=0;right=0;pointerEvents=1;" vertex="1" parent="I8GjuqWo_tKD1h4LxUAl-27">
          <mxGeometry x="420" width="60" height="30" as="geometry">
            <mxRectangle width="60" height="30" as="alternateBounds" />
          </mxGeometry>
        </mxCell>
        <mxCell id="I8GjuqWo_tKD1h4LxUAl-36" value="Etype" style="shape=partialRectangle;html=1;whiteSpace=wrap;connectable=0;strokeColor=inherit;overflow=hidden;fillColor=none;top=0;left=0;bottom=0;right=0;pointerEvents=1;" vertex="1" parent="I8GjuqWo_tKD1h4LxUAl-27">
          <mxGeometry x="480" width="60" height="30" as="geometry">
            <mxRectangle width="60" height="30" as="alternateBounds" />
          </mxGeometry>
        </mxCell>
        <mxCell id="I8GjuqWo_tKD1h4LxUAl-37" value="Shift" style="shape=partialRectangle;html=1;whiteSpace=wrap;connectable=0;strokeColor=inherit;overflow=hidden;fillColor=none;top=0;left=0;bottom=0;right=0;pointerEvents=1;" vertex="1" parent="I8GjuqWo_tKD1h4LxUAl-27">
          <mxGeometry x="540" width="60" height="30" as="geometry">
            <mxRectangle width="60" height="30" as="alternateBounds" />
          </mxGeometry>
        </mxCell>
        <mxCell id="I8GjuqWo_tKD1h4LxUAl-38" value="Position" style="shape=partialRectangle;html=1;whiteSpace=wrap;connectable=0;strokeColor=inherit;overflow=hidden;fillColor=none;top=0;left=0;bottom=0;right=0;pointerEvents=1;" vertex="1" parent="I8GjuqWo_tKD1h4LxUAl-27">
          <mxGeometry x="600" width="60" height="30" as="geometry">
            <mxRectangle width="60" height="30" as="alternateBounds" />
          </mxGeometry>
        </mxCell>
        <mxCell id="I8GjuqWo_tKD1h4LxUAl-39" value="AStype" style="shape=partialRectangle;html=1;whiteSpace=wrap;connectable=0;strokeColor=inherit;overflow=hidden;fillColor=none;top=0;left=0;bottom=0;right=0;pointerEvents=1;" vertex="1" parent="I8GjuqWo_tKD1h4LxUAl-27">
          <mxGeometry x="660" width="60" height="30" as="geometry">
            <mxRectangle width="60" height="30" as="alternateBounds" />
          </mxGeometry>
        </mxCell>
        <mxCell id="I8GjuqWo_tKD1h4LxUAl-40" value="Type" style="shape=partialRectangle;html=1;whiteSpace=wrap;connectable=0;strokeColor=inherit;overflow=hidden;fillColor=none;top=0;left=0;bottom=0;right=0;pointerEvents=1;" vertex="1" parent="I8GjuqWo_tKD1h4LxUAl-27">
          <mxGeometry x="720" width="60" height="30" as="geometry">
            <mxRectangle width="60" height="30" as="alternateBounds" />
          </mxGeometry>
        </mxCell>
        <mxCell id="I8GjuqWo_tKD1h4LxUAl-41" value="" style="shape=partialRectangle;html=1;whiteSpace=wrap;connectable=0;strokeColor=inherit;overflow=hidden;fillColor=none;top=0;left=0;bottom=0;right=0;pointerEvents=1;" vertex="1" parent="I8GjuqWo_tKD1h4LxUAl-27">
          <mxGeometry x="780" width="60" height="30" as="geometry">
            <mxRectangle width="60" height="30" as="alternateBounds" />
          </mxGeometry>
        </mxCell>
        <mxCell id="I8GjuqWo_tKD1h4LxUAl-212" value="" style="edgeStyle=orthogonalEdgeStyle;rounded=0;orthogonalLoop=1;jettySize=auto;html=1;entryX=0;entryY=0.5;entryDx=0;entryDy=0;" edge="1" parent="1" source="I8GjuqWo_tKD1h4LxUAl-42" target="I8GjuqWo_tKD1h4LxUAl-27">
          <mxGeometry relative="1" as="geometry">
            <mxPoint x="-40" y="425" as="targetPoint" />
            <Array as="points">
              <mxPoint x="20" y="425" />
              <mxPoint x="20" y="365" />
            </Array>
          </mxGeometry>
        </mxCell>
        <mxCell id="I8GjuqWo_tKD1h4LxUAl-42" value="Employee Pno" style="shape=table;startSize=20;container=1;collapsible=0;childLayout=tableLayout;align=left;strokeWidth=1;perimeterSpacing=0;arcSize=15;swimlaneHead=0;" vertex="1" parent="1">
          <mxGeometry x="40" y="400" width="180" height="50" as="geometry" />
        </mxCell>
        <mxCell id="I8GjuqWo_tKD1h4LxUAl-43" value="" style="shape=tableRow;horizontal=0;startSize=0;swimlaneHead=0;swimlaneBody=0;strokeColor=inherit;top=0;left=0;bottom=0;right=0;collapsible=0;dropTarget=0;fillColor=none;points=[[0,0.5],[1,0.5]];portConstraint=eastwest;" vertex="1" parent="I8GjuqWo_tKD1h4LxUAl-42">
          <mxGeometry y="20" width="180" height="30" as="geometry" />
        </mxCell>
        <mxCell id="I8GjuqWo_tKD1h4LxUAl-44" value="" style="shape=partialRectangle;html=1;whiteSpace=wrap;connectable=0;strokeColor=inherit;overflow=hidden;fillColor=none;top=0;left=0;bottom=0;right=0;pointerEvents=1;" vertex="1" parent="I8GjuqWo_tKD1h4LxUAl-43">
          <mxGeometry width="60" height="30" as="geometry">
            <mxRectangle width="60" height="30" as="alternateBounds" />
          </mxGeometry>
        </mxCell>
        <mxCell id="I8GjuqWo_tKD1h4LxUAl-45" value="Pn1" style="shape=partialRectangle;html=1;whiteSpace=wrap;connectable=0;strokeColor=inherit;overflow=hidden;fillColor=none;top=0;left=0;bottom=0;right=0;pointerEvents=1;" vertex="1" parent="I8GjuqWo_tKD1h4LxUAl-43">
          <mxGeometry x="60" width="60" height="30" as="geometry">
            <mxRectangle width="60" height="30" as="alternateBounds" />
          </mxGeometry>
        </mxCell>
        <mxCell id="I8GjuqWo_tKD1h4LxUAl-46" value="Pn2" style="shape=partialRectangle;html=1;whiteSpace=wrap;connectable=0;strokeColor=inherit;overflow=hidden;fillColor=none;top=0;left=0;bottom=0;right=0;pointerEvents=1;" vertex="1" parent="I8GjuqWo_tKD1h4LxUAl-43">
          <mxGeometry x="120" width="60" height="30" as="geometry">
            <mxRectangle width="60" height="30" as="alternateBounds" />
          </mxGeometry>
        </mxCell>
        <mxCell id="I8GjuqWo_tKD1h4LxUAl-226" value="" style="edgeStyle=orthogonalEdgeStyle;rounded=0;orthogonalLoop=1;jettySize=auto;html=1;exitX=1;exitY=0.5;exitDx=0;exitDy=0;entryX=0.165;entryY=1.067;entryDx=0;entryDy=0;entryPerimeter=0;" edge="1" parent="1" target="I8GjuqWo_tKD1h4LxUAl-22">
          <mxGeometry relative="1" as="geometry">
            <mxPoint x="799.9999999999998" y="515" as="sourcePoint" />
            <mxPoint x="69" y="250" as="targetPoint" />
            <Array as="points">
              <mxPoint x="1000" y="515" />
              <mxPoint x="1000" y="253" />
              <mxPoint x="70" y="253" />
            </Array>
          </mxGeometry>
        </mxCell>
        <mxCell id="I8GjuqWo_tKD1h4LxUAl-47" value="Flight Relation" style="shape=table;startSize=20;container=1;collapsible=0;childLayout=tableLayout;align=left;strokeWidth=1;perimeterSpacing=0;arcSize=15;swimlaneHead=0;" vertex="1" parent="1">
          <mxGeometry x="40" y="470" width="760" height="50" as="geometry" />
        </mxCell>
        <mxCell id="I8GjuqWo_tKD1h4LxUAl-48" value="" style="shape=tableRow;horizontal=0;startSize=0;swimlaneHead=0;swimlaneBody=0;strokeColor=inherit;top=0;left=0;bottom=0;right=0;collapsible=0;dropTarget=0;fillColor=none;points=[[0,0.5],[1,0.5]];portConstraint=eastwest;" vertex="1" parent="I8GjuqWo_tKD1h4LxUAl-47">
          <mxGeometry y="20" width="760" height="30" as="geometry" />
        </mxCell>
        <mxCell id="I8GjuqWo_tKD1h4LxUAl-49" value="&lt;u&gt;Flight Code&lt;/u&gt;" style="shape=partialRectangle;html=1;whiteSpace=wrap;connectable=0;strokeColor=inherit;overflow=hidden;fillColor=none;top=0;left=0;bottom=0;right=0;pointerEvents=1;" vertex="1" parent="I8GjuqWo_tKD1h4LxUAl-48">
          <mxGeometry width="73" height="30" as="geometry">
            <mxRectangle width="73" height="30" as="alternateBounds" />
          </mxGeometry>
        </mxCell>
        <mxCell id="I8GjuqWo_tKD1h4LxUAl-50" value="Arrival" style="shape=partialRectangle;html=1;whiteSpace=wrap;connectable=0;strokeColor=inherit;overflow=hidden;fillColor=none;top=0;left=0;bottom=0;right=0;pointerEvents=1;" vertex="1" parent="I8GjuqWo_tKD1h4LxUAl-48">
          <mxGeometry x="73" width="52" height="30" as="geometry">
            <mxRectangle width="52" height="30" as="alternateBounds" />
          </mxGeometry>
        </mxCell>
        <mxCell id="I8GjuqWo_tKD1h4LxUAl-51" value="Destination" style="shape=partialRectangle;html=1;whiteSpace=wrap;connectable=0;strokeColor=inherit;overflow=hidden;fillColor=none;top=0;left=0;bottom=0;right=0;pointerEvents=1;" vertex="1" parent="I8GjuqWo_tKD1h4LxUAl-48">
          <mxGeometry x="125" width="74" height="30" as="geometry">
            <mxRectangle width="74" height="30" as="alternateBounds" />
          </mxGeometry>
        </mxCell>
        <mxCell id="I8GjuqWo_tKD1h4LxUAl-52" value="Source" style="shape=partialRectangle;html=1;whiteSpace=wrap;connectable=0;strokeColor=inherit;overflow=hidden;fillColor=none;top=0;left=0;bottom=0;right=0;pointerEvents=1;" vertex="1" parent="I8GjuqWo_tKD1h4LxUAl-48">
          <mxGeometry x="199" width="52" height="30" as="geometry">
            <mxRectangle width="52" height="30" as="alternateBounds" />
          </mxGeometry>
        </mxCell>
        <mxCell id="I8GjuqWo_tKD1h4LxUAl-53" value="Status" style="shape=partialRectangle;html=1;whiteSpace=wrap;connectable=0;strokeColor=inherit;overflow=hidden;fillColor=none;top=0;left=0;bottom=0;right=0;pointerEvents=1;" vertex="1" parent="I8GjuqWo_tKD1h4LxUAl-48">
          <mxGeometry x="251" width="63" height="30" as="geometry">
            <mxRectangle width="63" height="30" as="alternateBounds" />
          </mxGeometry>
        </mxCell>
        <mxCell id="I8GjuqWo_tKD1h4LxUAl-54" value="Duration" style="shape=partialRectangle;html=1;whiteSpace=wrap;connectable=0;strokeColor=inherit;overflow=hidden;fillColor=none;top=0;left=0;bottom=0;right=0;pointerEvents=1;" vertex="1" parent="I8GjuqWo_tKD1h4LxUAl-48">
          <mxGeometry x="314" width="62" height="30" as="geometry">
            <mxRectangle width="62" height="30" as="alternateBounds" />
          </mxGeometry>
        </mxCell>
        <mxCell id="I8GjuqWo_tKD1h4LxUAl-55" value="Flight type" style="shape=partialRectangle;html=1;whiteSpace=wrap;connectable=0;strokeColor=inherit;overflow=hidden;fillColor=none;top=0;left=0;bottom=0;right=0;pointerEvents=1;" vertex="1" parent="I8GjuqWo_tKD1h4LxUAl-48">
          <mxGeometry x="376" width="74" height="30" as="geometry">
            <mxRectangle width="74" height="30" as="alternateBounds" />
          </mxGeometry>
        </mxCell>
        <mxCell id="I8GjuqWo_tKD1h4LxUAl-56" value="Layover_time" style="shape=partialRectangle;html=1;whiteSpace=wrap;connectable=0;strokeColor=inherit;overflow=hidden;fillColor=none;top=0;left=0;bottom=0;right=0;pointerEvents=1;" vertex="1" parent="I8GjuqWo_tKD1h4LxUAl-48">
          <mxGeometry x="450" width="94" height="30" as="geometry">
            <mxRectangle width="94" height="30" as="alternateBounds" />
          </mxGeometry>
        </mxCell>
        <mxCell id="I8GjuqWo_tKD1h4LxUAl-57" value="No_of_Stops" style="shape=partialRectangle;html=1;whiteSpace=wrap;connectable=0;strokeColor=inherit;overflow=hidden;fillColor=none;top=0;left=0;bottom=0;right=0;pointerEvents=1;" vertex="1" parent="I8GjuqWo_tKD1h4LxUAl-48">
          <mxGeometry x="544" width="94" height="30" as="geometry">
            <mxRectangle width="94" height="30" as="alternateBounds" />
          </mxGeometry>
        </mxCell>
        <mxCell id="I8GjuqWo_tKD1h4LxUAl-58" value="Type" style="shape=partialRectangle;html=1;whiteSpace=wrap;connectable=0;strokeColor=inherit;overflow=hidden;fillColor=none;top=0;left=0;bottom=0;right=0;pointerEvents=1;" vertex="1" parent="I8GjuqWo_tKD1h4LxUAl-48">
          <mxGeometry x="638" width="62" height="30" as="geometry">
            <mxRectangle width="62" height="30" as="alternateBounds" />
          </mxGeometry>
        </mxCell>
        <mxCell id="I8GjuqWo_tKD1h4LxUAl-59" value="" style="shape=partialRectangle;html=1;whiteSpace=wrap;connectable=0;strokeColor=inherit;overflow=hidden;fillColor=none;top=0;left=0;bottom=0;right=0;pointerEvents=1;" vertex="1" parent="I8GjuqWo_tKD1h4LxUAl-48">
          <mxGeometry x="700" width="60" height="30" as="geometry">
            <mxRectangle width="60" height="30" as="alternateBounds" />
          </mxGeometry>
        </mxCell>
        <mxCell id="I8GjuqWo_tKD1h4LxUAl-252" value="" style="edgeStyle=orthogonalEdgeStyle;rounded=0;orthogonalLoop=1;jettySize=auto;html=1;entryX=0;entryY=0.5;entryDx=0;entryDy=0;" edge="1" parent="1" source="I8GjuqWo_tKD1h4LxUAl-66" target="I8GjuqWo_tKD1h4LxUAl-71">
          <mxGeometry relative="1" as="geometry">
            <mxPoint x="240" y="565" as="targetPoint" />
            <Array as="points">
              <mxPoint x="130" y="600" />
              <mxPoint x="20" y="600" />
              <mxPoint x="20" y="645" />
            </Array>
          </mxGeometry>
        </mxCell>
        <mxCell id="I8GjuqWo_tKD1h4LxUAl-262" value="" style="edgeStyle=orthogonalEdgeStyle;rounded=0;orthogonalLoop=1;jettySize=auto;html=1;entryX=0.045;entryY=1.145;entryDx=0;entryDy=0;entryPerimeter=0;" edge="1" parent="1" source="I8GjuqWo_tKD1h4LxUAl-66" target="I8GjuqWo_tKD1h4LxUAl-27">
          <mxGeometry relative="1" as="geometry">
            <mxPoint x="440" y="450" as="targetPoint" />
            <Array as="points">
              <mxPoint x="10" y="565" />
              <mxPoint x="10" y="460" />
              <mxPoint x="260" y="460" />
              <mxPoint x="260" y="400" />
              <mxPoint x="78" y="400" />
            </Array>
          </mxGeometry>
        </mxCell>
        <mxCell id="I8GjuqWo_tKD1h4LxUAl-66" value="Employer Passenger" style="shape=table;startSize=20;container=1;collapsible=0;childLayout=tableLayout;align=left;strokeWidth=1;perimeterSpacing=0;arcSize=15;swimlaneHead=0;" vertex="1" parent="1">
          <mxGeometry x="40" y="540" width="120" height="50" as="geometry" />
        </mxCell>
        <mxCell id="I8GjuqWo_tKD1h4LxUAl-67" value="" style="shape=tableRow;horizontal=0;startSize=0;swimlaneHead=0;swimlaneBody=0;strokeColor=inherit;top=0;left=0;bottom=0;right=0;collapsible=0;dropTarget=0;fillColor=none;points=[[0,0.5],[1,0.5]];portConstraint=eastwest;" vertex="1" parent="I8GjuqWo_tKD1h4LxUAl-66">
          <mxGeometry y="20" width="120" height="30" as="geometry" />
        </mxCell>
        <mxCell id="I8GjuqWo_tKD1h4LxUAl-68" value="" style="shape=partialRectangle;html=1;whiteSpace=wrap;connectable=0;strokeColor=inherit;overflow=hidden;fillColor=none;top=0;left=0;bottom=0;right=0;pointerEvents=1;" vertex="1" parent="I8GjuqWo_tKD1h4LxUAl-67">
          <mxGeometry width="60" height="30" as="geometry">
            <mxRectangle width="60" height="30" as="alternateBounds" />
          </mxGeometry>
        </mxCell>
        <mxCell id="I8GjuqWo_tKD1h4LxUAl-69" value="" style="shape=partialRectangle;html=1;whiteSpace=wrap;connectable=0;strokeColor=inherit;overflow=hidden;fillColor=none;top=0;left=0;bottom=0;right=0;pointerEvents=1;" vertex="1" parent="I8GjuqWo_tKD1h4LxUAl-67">
          <mxGeometry x="60" width="60" height="30" as="geometry">
            <mxRectangle width="60" height="30" as="alternateBounds" />
          </mxGeometry>
        </mxCell>
        <mxCell id="I8GjuqWo_tKD1h4LxUAl-282" value="" style="edgeStyle=orthogonalEdgeStyle;rounded=0;orthogonalLoop=1;jettySize=auto;html=1;exitX=1;exitY=0.5;exitDx=0;exitDy=0;" edge="1" parent="1" source="I8GjuqWo_tKD1h4LxUAl-71">
          <mxGeometry relative="1" as="geometry">
            <mxPoint x="82" y="520" as="targetPoint" />
            <Array as="points">
              <mxPoint x="570" y="645" />
              <mxPoint x="570" y="540" />
              <mxPoint x="82" y="540" />
            </Array>
          </mxGeometry>
        </mxCell>
        <mxCell id="I8GjuqWo_tKD1h4LxUAl-70" value="Passenger Relation" style="shape=table;startSize=20;container=1;collapsible=0;childLayout=tableLayout;align=left;strokeWidth=1;perimeterSpacing=0;arcSize=15;swimlaneHead=0;" vertex="1" parent="1">
          <mxGeometry x="40" y="610" width="490" height="50" as="geometry" />
        </mxCell>
        <mxCell id="I8GjuqWo_tKD1h4LxUAl-71" value="" style="shape=tableRow;horizontal=0;startSize=0;swimlaneHead=0;swimlaneBody=0;strokeColor=inherit;top=0;left=0;bottom=0;right=0;collapsible=0;dropTarget=0;fillColor=none;points=[[0,0.5],[1,0.5]];portConstraint=eastwest;" vertex="1" parent="I8GjuqWo_tKD1h4LxUAl-70">
          <mxGeometry y="20" width="490" height="30" as="geometry" />
        </mxCell>
        <mxCell id="I8GjuqWo_tKD1h4LxUAl-72" value="&lt;u&gt;PID&lt;/u&gt;" style="shape=partialRectangle;html=1;whiteSpace=wrap;connectable=0;strokeColor=inherit;overflow=hidden;fillColor=none;top=0;left=0;bottom=0;right=0;pointerEvents=1;" vertex="1" parent="I8GjuqWo_tKD1h4LxUAl-71">
          <mxGeometry width="60" height="30" as="geometry">
            <mxRectangle width="60" height="30" as="alternateBounds" />
          </mxGeometry>
        </mxCell>
        <mxCell id="I8GjuqWo_tKD1h4LxUAl-73" value="&lt;u&gt;PassportNo&lt;/u&gt;" style="shape=partialRectangle;html=1;whiteSpace=wrap;connectable=0;strokeColor=inherit;overflow=hidden;fillColor=none;top=0;left=0;bottom=0;right=0;pointerEvents=1;" vertex="1" parent="I8GjuqWo_tKD1h4LxUAl-71">
          <mxGeometry x="60" width="70" height="30" as="geometry">
            <mxRectangle width="70" height="30" as="alternateBounds" />
          </mxGeometry>
        </mxCell>
        <mxCell id="I8GjuqWo_tKD1h4LxUAl-74" value="Age" style="shape=partialRectangle;html=1;whiteSpace=wrap;connectable=0;strokeColor=inherit;overflow=hidden;fillColor=none;top=0;left=0;bottom=0;right=0;pointerEvents=1;" vertex="1" parent="I8GjuqWo_tKD1h4LxUAl-71">
          <mxGeometry x="130" width="60" height="30" as="geometry">
            <mxRectangle width="60" height="30" as="alternateBounds" />
          </mxGeometry>
        </mxCell>
        <mxCell id="I8GjuqWo_tKD1h4LxUAl-75" value="Sex" style="shape=partialRectangle;html=1;whiteSpace=wrap;connectable=0;strokeColor=inherit;overflow=hidden;fillColor=none;top=0;left=0;bottom=0;right=0;pointerEvents=1;" vertex="1" parent="I8GjuqWo_tKD1h4LxUAl-71">
          <mxGeometry x="190" width="50" height="30" as="geometry">
            <mxRectangle width="50" height="30" as="alternateBounds" />
          </mxGeometry>
        </mxCell>
        <mxCell id="I8GjuqWo_tKD1h4LxUAl-76" value="Address" style="shape=partialRectangle;html=1;whiteSpace=wrap;connectable=0;strokeColor=inherit;overflow=hidden;fillColor=none;top=0;left=0;bottom=0;right=0;pointerEvents=1;" vertex="1" parent="I8GjuqWo_tKD1h4LxUAl-71">
          <mxGeometry x="240" width="60" height="30" as="geometry">
            <mxRectangle width="60" height="30" as="alternateBounds" />
          </mxGeometry>
        </mxCell>
        <mxCell id="I8GjuqWo_tKD1h4LxUAl-77" value="Fname" style="shape=partialRectangle;html=1;whiteSpace=wrap;connectable=0;strokeColor=inherit;overflow=hidden;fillColor=none;top=0;left=0;bottom=0;right=0;pointerEvents=1;" vertex="1" parent="I8GjuqWo_tKD1h4LxUAl-71">
          <mxGeometry x="300" width="60" height="30" as="geometry">
            <mxRectangle width="60" height="30" as="alternateBounds" />
          </mxGeometry>
        </mxCell>
        <mxCell id="I8GjuqWo_tKD1h4LxUAl-78" value="Lname" style="shape=partialRectangle;html=1;whiteSpace=wrap;connectable=0;strokeColor=inherit;overflow=hidden;fillColor=none;top=0;left=0;bottom=0;right=0;pointerEvents=1;" vertex="1" parent="I8GjuqWo_tKD1h4LxUAl-71">
          <mxGeometry x="360" width="60" height="30" as="geometry">
            <mxRectangle width="60" height="30" as="alternateBounds" />
          </mxGeometry>
        </mxCell>
        <mxCell id="I8GjuqWo_tKD1h4LxUAl-79" style="shape=partialRectangle;html=1;whiteSpace=wrap;connectable=0;strokeColor=inherit;overflow=hidden;fillColor=none;top=0;left=0;bottom=0;right=0;pointerEvents=1;" vertex="1" parent="I8GjuqWo_tKD1h4LxUAl-71">
          <mxGeometry x="420" width="70" height="30" as="geometry">
            <mxRectangle width="70" height="30" as="alternateBounds" />
          </mxGeometry>
        </mxCell>
        <mxCell id="I8GjuqWo_tKD1h4LxUAl-247" value="" style="edgeStyle=orthogonalEdgeStyle;rounded=0;orthogonalLoop=1;jettySize=auto;html=1;entryX=-0.006;entryY=0.831;entryDx=0;entryDy=0;entryPerimeter=0;" edge="1" parent="1" source="I8GjuqWo_tKD1h4LxUAl-80" target="I8GjuqWo_tKD1h4LxUAl-71">
          <mxGeometry relative="1" as="geometry">
            <mxPoint x="-40" y="705" as="targetPoint" />
            <Array as="points">
              <mxPoint x="10" y="705" />
              <mxPoint x="10" y="660" />
              <mxPoint x="20" y="660" />
              <mxPoint x="20" y="655" />
            </Array>
          </mxGeometry>
        </mxCell>
        <mxCell id="I8GjuqWo_tKD1h4LxUAl-80" value="Passenger Pno" style="shape=table;startSize=20;container=1;collapsible=0;childLayout=tableLayout;align=left;strokeWidth=1;perimeterSpacing=0;arcSize=15;swimlaneHead=0;" vertex="1" parent="1">
          <mxGeometry x="40" y="680" width="180" height="50" as="geometry" />
        </mxCell>
        <mxCell id="I8GjuqWo_tKD1h4LxUAl-81" value="" style="shape=tableRow;horizontal=0;startSize=0;swimlaneHead=0;swimlaneBody=0;strokeColor=inherit;top=0;left=0;bottom=0;right=0;collapsible=0;dropTarget=0;fillColor=none;points=[[0,0.5],[1,0.5]];portConstraint=eastwest;" vertex="1" parent="I8GjuqWo_tKD1h4LxUAl-80">
          <mxGeometry y="20" width="180" height="30" as="geometry" />
        </mxCell>
        <mxCell id="I8GjuqWo_tKD1h4LxUAl-82" value="" style="shape=partialRectangle;html=1;whiteSpace=wrap;connectable=0;strokeColor=inherit;overflow=hidden;fillColor=none;top=0;left=0;bottom=0;right=0;pointerEvents=1;" vertex="1" parent="I8GjuqWo_tKD1h4LxUAl-81">
          <mxGeometry width="60" height="30" as="geometry">
            <mxRectangle width="60" height="30" as="alternateBounds" />
          </mxGeometry>
        </mxCell>
        <mxCell id="I8GjuqWo_tKD1h4LxUAl-83" value="Pn1" style="shape=partialRectangle;html=1;whiteSpace=wrap;connectable=0;strokeColor=inherit;overflow=hidden;fillColor=none;top=0;left=0;bottom=0;right=0;pointerEvents=1;" vertex="1" parent="I8GjuqWo_tKD1h4LxUAl-81">
          <mxGeometry x="60" width="60" height="30" as="geometry">
            <mxRectangle width="60" height="30" as="alternateBounds" />
          </mxGeometry>
        </mxCell>
        <mxCell id="I8GjuqWo_tKD1h4LxUAl-84" value="Pn2" style="shape=partialRectangle;html=1;whiteSpace=wrap;connectable=0;strokeColor=inherit;overflow=hidden;fillColor=none;top=0;left=0;bottom=0;right=0;pointerEvents=1;" vertex="1" parent="I8GjuqWo_tKD1h4LxUAl-81">
          <mxGeometry x="120" width="60" height="30" as="geometry">
            <mxRectangle width="60" height="30" as="alternateBounds" />
          </mxGeometry>
        </mxCell>
        <mxCell id="I8GjuqWo_tKD1h4LxUAl-321" value="" style="edgeStyle=orthogonalEdgeStyle;rounded=0;orthogonalLoop=1;jettySize=auto;html=1;entryX=0.052;entryY=1.15;entryDx=0;entryDy=0;entryPerimeter=0;exitX=0.869;exitY=1.094;exitDx=0;exitDy=0;exitPerimeter=0;" edge="1" parent="1" source="I8GjuqWo_tKD1h4LxUAl-86" target="I8GjuqWo_tKD1h4LxUAl-71">
          <mxGeometry relative="1" as="geometry">
            <mxPoint x="839" y="802" as="sourcePoint" />
            <mxPoint x="700" y="670" as="targetPoint" />
            <Array as="points">
              <mxPoint x="840" y="830" />
              <mxPoint x="840" y="860" />
              <mxPoint x="990" y="860" />
              <mxPoint x="990" y="750" />
              <mxPoint x="240" y="750" />
              <mxPoint x="240" y="680" />
              <mxPoint x="66" y="680" />
            </Array>
          </mxGeometry>
        </mxCell>
        <mxCell id="I8GjuqWo_tKD1h4LxUAl-336" value="" style="edgeStyle=orthogonalEdgeStyle;rounded=0;orthogonalLoop=1;jettySize=auto;html=1;entryX=0.182;entryY=1.122;entryDx=0;entryDy=0;entryPerimeter=0;exitX=1;exitY=0.5;exitDx=0;exitDy=0;" edge="1" parent="1" source="I8GjuqWo_tKD1h4LxUAl-86" target="I8GjuqWo_tKD1h4LxUAl-71">
          <mxGeometry relative="1" as="geometry">
            <mxPoint x="640" y="690" as="targetPoint" />
            <Array as="points">
              <mxPoint x="1041" y="795" />
              <mxPoint x="1041" y="670" />
              <mxPoint x="129" y="670" />
            </Array>
          </mxGeometry>
        </mxCell>
        <mxCell id="I8GjuqWo_tKD1h4LxUAl-85" value="Ticket Realation" style="shape=table;startSize=20;container=1;collapsible=0;childLayout=tableLayout;align=left;strokeWidth=1;perimeterSpacing=0;arcSize=15;swimlaneHead=0;" vertex="1" parent="1">
          <mxGeometry x="40" y="760" width="920" height="50" as="geometry" />
        </mxCell>
        <mxCell id="I8GjuqWo_tKD1h4LxUAl-86" value="" style="shape=tableRow;horizontal=0;startSize=0;swimlaneHead=0;swimlaneBody=0;strokeColor=inherit;top=0;left=0;bottom=0;right=0;collapsible=0;dropTarget=0;fillColor=none;points=[[0,0.5],[1,0.5]];portConstraint=eastwest;" vertex="1" parent="I8GjuqWo_tKD1h4LxUAl-85">
          <mxGeometry y="20" width="920" height="30" as="geometry" />
        </mxCell>
        <mxCell id="I8GjuqWo_tKD1h4LxUAl-87" value="&lt;u&gt;Tno&lt;/u&gt;" style="shape=partialRectangle;html=1;whiteSpace=wrap;connectable=0;strokeColor=inherit;overflow=hidden;fillColor=none;top=0;left=0;bottom=0;right=0;pointerEvents=1;" vertex="1" parent="I8GjuqWo_tKD1h4LxUAl-86">
          <mxGeometry width="60" height="30" as="geometry">
            <mxRectangle width="60" height="30" as="alternateBounds" />
          </mxGeometry>
        </mxCell>
        <mxCell id="I8GjuqWo_tKD1h4LxUAl-88" value="Price" style="shape=partialRectangle;html=1;whiteSpace=wrap;connectable=0;strokeColor=inherit;overflow=hidden;fillColor=none;top=0;left=0;bottom=0;right=0;pointerEvents=1;" vertex="1" parent="I8GjuqWo_tKD1h4LxUAl-86">
          <mxGeometry x="60" width="60" height="30" as="geometry">
            <mxRectangle width="60" height="30" as="alternateBounds" />
          </mxGeometry>
        </mxCell>
        <mxCell id="I8GjuqWo_tKD1h4LxUAl-89" value="Source" style="shape=partialRectangle;html=1;whiteSpace=wrap;connectable=0;strokeColor=inherit;overflow=hidden;fillColor=none;top=0;left=0;bottom=0;right=0;pointerEvents=1;" vertex="1" parent="I8GjuqWo_tKD1h4LxUAl-86">
          <mxGeometry x="120" width="60" height="30" as="geometry">
            <mxRectangle width="60" height="30" as="alternateBounds" />
          </mxGeometry>
        </mxCell>
        <mxCell id="I8GjuqWo_tKD1h4LxUAl-90" value="Destination" style="shape=partialRectangle;html=1;whiteSpace=wrap;connectable=0;strokeColor=inherit;overflow=hidden;fillColor=none;top=0;left=0;bottom=0;right=0;pointerEvents=1;" vertex="1" parent="I8GjuqWo_tKD1h4LxUAl-86">
          <mxGeometry x="180" width="70" height="30" as="geometry">
            <mxRectangle width="70" height="30" as="alternateBounds" />
          </mxGeometry>
        </mxCell>
        <mxCell id="I8GjuqWo_tKD1h4LxUAl-91" value="Class" style="shape=partialRectangle;html=1;whiteSpace=wrap;connectable=0;strokeColor=inherit;overflow=hidden;fillColor=none;top=0;left=0;bottom=0;right=0;pointerEvents=1;" vertex="1" parent="I8GjuqWo_tKD1h4LxUAl-86">
          <mxGeometry x="250" width="50" height="30" as="geometry">
            <mxRectangle width="50" height="30" as="alternateBounds" />
          </mxGeometry>
        </mxCell>
        <mxCell id="I8GjuqWo_tKD1h4LxUAl-92" value="SeatNo" style="shape=partialRectangle;html=1;whiteSpace=wrap;connectable=0;strokeColor=inherit;overflow=hidden;fillColor=none;top=0;left=0;bottom=0;right=0;pointerEvents=1;" vertex="1" parent="I8GjuqWo_tKD1h4LxUAl-86">
          <mxGeometry x="300" width="60" height="30" as="geometry">
            <mxRectangle width="60" height="30" as="alternateBounds" />
          </mxGeometry>
        </mxCell>
        <mxCell id="I8GjuqWo_tKD1h4LxUAl-93" value="Date_of_Travel" style="shape=partialRectangle;html=1;whiteSpace=wrap;connectable=0;strokeColor=inherit;overflow=hidden;fillColor=none;top=0;left=0;bottom=0;right=0;pointerEvents=1;" vertex="1" parent="I8GjuqWo_tKD1h4LxUAl-86">
          <mxGeometry x="360" width="90" height="30" as="geometry">
            <mxRectangle width="90" height="30" as="alternateBounds" />
          </mxGeometry>
        </mxCell>
        <mxCell id="I8GjuqWo_tKD1h4LxUAl-94" value="Date_of_Booking" style="shape=partialRectangle;html=1;whiteSpace=wrap;connectable=0;strokeColor=inherit;overflow=hidden;fillColor=none;top=0;left=0;bottom=0;right=0;pointerEvents=1;" vertex="1" parent="I8GjuqWo_tKD1h4LxUAl-86">
          <mxGeometry x="450" width="110" height="30" as="geometry">
            <mxRectangle width="110" height="30" as="alternateBounds" />
          </mxGeometry>
        </mxCell>
        <mxCell id="I8GjuqWo_tKD1h4LxUAl-95" value="Date_of_Cancellation" style="shape=partialRectangle;html=1;whiteSpace=wrap;connectable=0;strokeColor=inherit;overflow=hidden;fillColor=none;top=0;left=0;bottom=0;right=0;pointerEvents=1;" vertex="1" parent="I8GjuqWo_tKD1h4LxUAl-86">
          <mxGeometry x="560" width="120" height="30" as="geometry">
            <mxRectangle width="120" height="30" as="alternateBounds" />
          </mxGeometry>
        </mxCell>
        <mxCell id="I8GjuqWo_tKD1h4LxUAl-96" value="Surcharge" style="shape=partialRectangle;html=1;whiteSpace=wrap;connectable=0;strokeColor=inherit;overflow=hidden;fillColor=none;top=0;left=0;bottom=0;right=0;pointerEvents=1;" vertex="1" parent="I8GjuqWo_tKD1h4LxUAl-86">
          <mxGeometry x="680" width="80" height="30" as="geometry">
            <mxRectangle width="80" height="30" as="alternateBounds" />
          </mxGeometry>
        </mxCell>
        <mxCell id="I8GjuqWo_tKD1h4LxUAl-284" style="shape=partialRectangle;html=1;whiteSpace=wrap;connectable=0;strokeColor=inherit;overflow=hidden;fillColor=none;top=0;left=0;bottom=0;right=0;pointerEvents=1;" vertex="1" parent="I8GjuqWo_tKD1h4LxUAl-86">
          <mxGeometry x="760" width="80" height="30" as="geometry">
            <mxRectangle width="80" height="30" as="alternateBounds" />
          </mxGeometry>
        </mxCell>
        <mxCell id="I8GjuqWo_tKD1h4LxUAl-283" style="shape=partialRectangle;html=1;whiteSpace=wrap;connectable=0;strokeColor=inherit;overflow=hidden;fillColor=none;top=0;left=0;bottom=0;right=0;pointerEvents=1;" vertex="1" parent="I8GjuqWo_tKD1h4LxUAl-86">
          <mxGeometry x="840" width="80" height="30" as="geometry">
            <mxRectangle width="80" height="30" as="alternateBounds" />
          </mxGeometry>
        </mxCell>
        <mxCell id="I8GjuqWo_tKD1h4LxUAl-170" value="" style="edgeStyle=orthogonalEdgeStyle;rounded=0;orthogonalLoop=1;jettySize=auto;html=1;entryX=0;entryY=0.5;entryDx=0;entryDy=0;" edge="1" parent="1" target="I8GjuqWo_tKD1h4LxUAl-22">
          <mxGeometry relative="1" as="geometry">
            <mxPoint x="160" y="290.0588235294118" as="sourcePoint" />
            <mxPoint x="260" y="290" as="targetPoint" />
            <Array as="points">
              <mxPoint x="210" y="290" />
              <mxPoint x="210" y="260" />
              <mxPoint x="20" y="260" />
              <mxPoint x="20" y="225" />
            </Array>
          </mxGeometry>
        </mxCell>
        <mxCell id="I8GjuqWo_tKD1h4LxUAl-181" value="" style="edgeStyle=orthogonalEdgeStyle;rounded=0;orthogonalLoop=1;jettySize=auto;html=1;entryX=0;entryY=0.5;entryDx=0;entryDy=0;" edge="1" parent="1" source="I8GjuqWo_tKD1h4LxUAl-97" target="I8GjuqWo_tKD1h4LxUAl-7">
          <mxGeometry relative="1" as="geometry">
            <mxPoint x="-40" y="300" as="targetPoint" />
            <Array as="points">
              <mxPoint x="10" y="300" />
              <mxPoint x="10" y="155" />
            </Array>
          </mxGeometry>
        </mxCell>
        <mxCell id="I8GjuqWo_tKD1h4LxUAl-97" value="Airport Airline" style="shape=table;startSize=20;container=1;collapsible=0;childLayout=tableLayout;align=left;strokeWidth=1;perimeterSpacing=0;arcSize=15;swimlaneHead=0;" vertex="1" parent="1">
          <mxGeometry x="40" y="270" width="120" height="50" as="geometry" />
        </mxCell>
        <mxCell id="I8GjuqWo_tKD1h4LxUAl-171" value="" style="shape=tableRow;horizontal=0;startSize=0;swimlaneHead=0;swimlaneBody=0;strokeColor=inherit;top=0;left=0;bottom=0;right=0;collapsible=0;dropTarget=0;fillColor=none;points=[[0,0.5],[1,0.5]];portConstraint=eastwest;" vertex="1" parent="I8GjuqWo_tKD1h4LxUAl-97">
          <mxGeometry y="20" width="120" height="30" as="geometry" />
        </mxCell>
        <mxCell id="I8GjuqWo_tKD1h4LxUAl-172" value="&lt;br&gt;&lt;p class=&quot;MsoNormal&quot;&gt;&lt;u&gt;&lt;/u&gt;&lt;/p&gt;" style="shape=partialRectangle;html=1;whiteSpace=wrap;connectable=0;strokeColor=inherit;overflow=hidden;fillColor=none;top=0;left=0;bottom=0;right=0;pointerEvents=1;" vertex="1" parent="I8GjuqWo_tKD1h4LxUAl-171">
          <mxGeometry width="60" height="30" as="geometry">
            <mxRectangle width="60" height="30" as="alternateBounds" />
          </mxGeometry>
        </mxCell>
        <mxCell id="I8GjuqWo_tKD1h4LxUAl-173" value="&lt;p class=&quot;MsoNormal&quot;&gt;&lt;br&gt;&lt;/p&gt;" style="shape=partialRectangle;html=1;whiteSpace=wrap;connectable=0;strokeColor=inherit;overflow=hidden;fillColor=none;top=0;left=0;bottom=0;right=0;pointerEvents=1;" vertex="1" parent="I8GjuqWo_tKD1h4LxUAl-171">
          <mxGeometry x="60" width="60" height="30" as="geometry">
            <mxRectangle width="60" height="30" as="alternateBounds" />
          </mxGeometry>
        </mxCell>
        <mxCell id="I8GjuqWo_tKD1h4LxUAl-102" value="" style="endArrow=none;html=1;rounded=0;dashed=1;dashPattern=1 2;" edge="1" parent="1">
          <mxGeometry relative="1" as="geometry">
            <mxPoint x="40" y="310" as="sourcePoint" />
            <mxPoint x="90" y="310" as="targetPoint" />
          </mxGeometry>
        </mxCell>
        <mxCell id="I8GjuqWo_tKD1h4LxUAl-103" value="APname" style="resizable=0;html=1;whiteSpace=wrap;align=right;verticalAlign=bottom;" connectable="0" vertex="1" parent="I8GjuqWo_tKD1h4LxUAl-102">
          <mxGeometry x="1" relative="1" as="geometry" />
        </mxCell>
        <mxCell id="I8GjuqWo_tKD1h4LxUAl-113" value="" style="endArrow=none;html=1;rounded=0;dashed=1;dashPattern=1 2;" edge="1" parent="1">
          <mxGeometry relative="1" as="geometry">
            <mxPoint x="105" y="310" as="sourcePoint" />
            <mxPoint x="155" y="310" as="targetPoint" />
          </mxGeometry>
        </mxCell>
        <mxCell id="I8GjuqWo_tKD1h4LxUAl-114" value="AirlineID" style="resizable=0;html=1;whiteSpace=wrap;align=right;verticalAlign=bottom;" connectable="0" vertex="1" parent="I8GjuqWo_tKD1h4LxUAl-113">
          <mxGeometry x="1" relative="1" as="geometry">
            <mxPoint y="1" as="offset" />
          </mxGeometry>
        </mxCell>
        <mxCell id="I8GjuqWo_tKD1h4LxUAl-118" value="" style="endArrow=none;html=1;rounded=0;dashed=1;dashPattern=1 2;" edge="1" parent="1">
          <mxGeometry relative="1" as="geometry">
            <mxPoint x="466" y="650" as="sourcePoint" />
            <mxPoint x="524" y="650" as="targetPoint" />
          </mxGeometry>
        </mxCell>
        <mxCell id="I8GjuqWo_tKD1h4LxUAl-128" value="Flight Code" style="edgeLabel;html=1;align=center;verticalAlign=middle;resizable=0;points=[];" vertex="1" connectable="0" parent="I8GjuqWo_tKD1h4LxUAl-118">
          <mxGeometry x="-0.4" y="9" relative="1" as="geometry">
            <mxPoint x="11" y="-1" as="offset" />
          </mxGeometry>
        </mxCell>
        <mxCell id="I8GjuqWo_tKD1h4LxUAl-121" value="" style="endArrow=none;html=1;rounded=0;dashed=1;dashPattern=1 2;" edge="1" parent="1">
          <mxGeometry relative="1" as="geometry">
            <mxPoint x="230" y="160" as="sourcePoint" />
            <mxPoint x="270" y="160" as="targetPoint" />
          </mxGeometry>
        </mxCell>
        <mxCell id="I8GjuqWo_tKD1h4LxUAl-122" value="Cname" style="resizable=0;html=1;whiteSpace=wrap;align=right;verticalAlign=bottom;" connectable="0" vertex="1" parent="I8GjuqWo_tKD1h4LxUAl-121">
          <mxGeometry x="1" relative="1" as="geometry">
            <mxPoint as="offset" />
          </mxGeometry>
        </mxCell>
        <mxCell id="I8GjuqWo_tKD1h4LxUAl-123" value="" style="endArrow=none;html=1;rounded=0;dashed=1;dashPattern=1 2;" edge="1" parent="1">
          <mxGeometry relative="1" as="geometry">
            <mxPoint x="825" y="370" as="sourcePoint" />
            <mxPoint x="875" y="370" as="targetPoint" />
          </mxGeometry>
        </mxCell>
        <mxCell id="I8GjuqWo_tKD1h4LxUAl-124" value="&lt;span style=&quot;text-align: center; text-wrap-mode: wrap;&quot;&gt;APname&lt;/span&gt;" style="resizable=0;html=1;whiteSpace=wrap;align=right;verticalAlign=bottom;" connectable="0" vertex="1" parent="I8GjuqWo_tKD1h4LxUAl-123">
          <mxGeometry x="1" relative="1" as="geometry">
            <mxPoint as="offset" />
          </mxGeometry>
        </mxCell>
        <mxCell id="I8GjuqWo_tKD1h4LxUAl-125" value="" style="endArrow=none;html=1;rounded=0;dashed=1;dashPattern=1 2;" edge="1" parent="1">
          <mxGeometry relative="1" as="geometry">
            <mxPoint x="60" y="440" as="sourcePoint" />
            <mxPoint x="80" y="440" as="targetPoint" />
          </mxGeometry>
        </mxCell>
        <mxCell id="I8GjuqWo_tKD1h4LxUAl-126" value="Eid" style="resizable=0;html=1;whiteSpace=wrap;align=right;verticalAlign=bottom;" connectable="0" vertex="1" parent="I8GjuqWo_tKD1h4LxUAl-125">
          <mxGeometry x="1" relative="1" as="geometry">
            <mxPoint as="offset" />
          </mxGeometry>
        </mxCell>
        <mxCell id="I8GjuqWo_tKD1h4LxUAl-138" value="" style="endArrow=none;html=1;rounded=0;dashed=1;dashPattern=1 2;" edge="1" parent="1">
          <mxGeometry relative="1" as="geometry">
            <mxPoint x="745" y="510" as="sourcePoint" />
            <mxPoint x="795" y="510" as="targetPoint" />
          </mxGeometry>
        </mxCell>
        <mxCell id="I8GjuqWo_tKD1h4LxUAl-139" value="AirlineID" style="resizable=0;html=1;whiteSpace=wrap;align=right;verticalAlign=bottom;" connectable="0" vertex="1" parent="I8GjuqWo_tKD1h4LxUAl-138">
          <mxGeometry x="1" relative="1" as="geometry">
            <mxPoint y="1" as="offset" />
          </mxGeometry>
        </mxCell>
        <mxCell id="I8GjuqWo_tKD1h4LxUAl-146" value="" style="endArrow=none;html=1;rounded=0;dashed=1;dashPattern=1 2;" edge="1" parent="1">
          <mxGeometry relative="1" as="geometry">
            <mxPoint x="50" y="580" as="sourcePoint" />
            <mxPoint x="75" y="580" as="targetPoint" />
          </mxGeometry>
        </mxCell>
        <mxCell id="I8GjuqWo_tKD1h4LxUAl-147" value="Eid" style="resizable=0;html=1;whiteSpace=wrap;align=right;verticalAlign=bottom;" connectable="0" vertex="1" parent="I8GjuqWo_tKD1h4LxUAl-146">
          <mxGeometry x="1" relative="1" as="geometry">
            <mxPoint as="offset" />
          </mxGeometry>
        </mxCell>
        <mxCell id="I8GjuqWo_tKD1h4LxUAl-154" value="" style="endArrow=none;html=1;rounded=0;dashed=1;dashPattern=1 2;" edge="1" parent="1">
          <mxGeometry relative="1" as="geometry">
            <mxPoint x="117.5" y="580" as="sourcePoint" />
            <mxPoint x="142.5" y="580" as="targetPoint" />
          </mxGeometry>
        </mxCell>
        <mxCell id="I8GjuqWo_tKD1h4LxUAl-155" value="PID" style="resizable=0;html=1;whiteSpace=wrap;align=right;verticalAlign=bottom;" connectable="0" vertex="1" parent="I8GjuqWo_tKD1h4LxUAl-154">
          <mxGeometry x="1" relative="1" as="geometry">
            <mxPoint as="offset" />
          </mxGeometry>
        </mxCell>
        <mxCell id="I8GjuqWo_tKD1h4LxUAl-160" value="" style="endArrow=none;html=1;rounded=0;dashed=1;dashPattern=1 2;" edge="1" parent="1">
          <mxGeometry relative="1" as="geometry">
            <mxPoint x="57.5" y="720" as="sourcePoint" />
            <mxPoint x="82.5" y="720" as="targetPoint" />
          </mxGeometry>
        </mxCell>
        <mxCell id="I8GjuqWo_tKD1h4LxUAl-161" value="PID" style="resizable=0;html=1;whiteSpace=wrap;align=right;verticalAlign=bottom;" connectable="0" vertex="1" parent="I8GjuqWo_tKD1h4LxUAl-160">
          <mxGeometry x="1" relative="1" as="geometry">
            <mxPoint as="offset" />
          </mxGeometry>
        </mxCell>
        <mxCell id="I8GjuqWo_tKD1h4LxUAl-291" value="" style="endArrow=none;html=1;rounded=0;dashed=1;dashPattern=1 2;" edge="1" parent="1">
          <mxGeometry relative="1" as="geometry">
            <mxPoint x="890" y="800" as="sourcePoint" />
            <mxPoint x="950" y="800" as="targetPoint" />
          </mxGeometry>
        </mxCell>
        <mxCell id="I8GjuqWo_tKD1h4LxUAl-292" value="PassportNo" style="resizable=0;html=1;whiteSpace=wrap;align=right;verticalAlign=bottom;" connectable="0" vertex="1" parent="I8GjuqWo_tKD1h4LxUAl-291">
          <mxGeometry x="1" relative="1" as="geometry">
            <mxPoint as="offset" />
          </mxGeometry>
        </mxCell>
        <mxCell id="I8GjuqWo_tKD1h4LxUAl-337" value="" style="endArrow=none;html=1;rounded=0;dashed=1;dashPattern=1 2;" edge="1" parent="1">
          <mxGeometry relative="1" as="geometry">
            <mxPoint x="825" y="800" as="sourcePoint" />
            <mxPoint x="850" y="800" as="targetPoint" />
          </mxGeometry>
        </mxCell>
        <mxCell id="I8GjuqWo_tKD1h4LxUAl-338" value="PID" style="resizable=0;html=1;whiteSpace=wrap;align=right;verticalAlign=bottom;" connectable="0" vertex="1" parent="I8GjuqWo_tKD1h4LxUAl-337">
          <mxGeometry x="1" relative="1" as="geometry">
            <mxPoint as="offset" />
          </mxGeometry>
        </mxCell>
      </root>
    </mxGraphModel>
  </diagram>
</mxfile>
